<?xml version="1.0" encoding="UTF-8"?><svg id="Layer_1" xmlns="http://www.w3.org/2000/svg" width="450" height="560" xmlns:xlink="http://www.w3.org/1999/xlink" viewBox="0 0 450 560"><defs><style>.cls-1{fill:url(#radial-gradient);}.cls-1,.cls-2{stroke-width:0px;}.cls-2{fill:#603813;}</style><radialGradient id="radial-gradient" cx="225" cy="280" fx="225" fy="280" r="248.24" gradientTransform="translate(4.99 -8.33) rotate(1) scale(1 1.02)" gradientUnits="userSpaceOnUse"><stop offset="0" stop-color="#fff"/><stop offset=".1" stop-color="#f2ede8"/><stop offset=".27" stop-color="#e0d2c6"/><stop offset=".44" stop-color="#d1bdac"/><stop offset=".62" stop-color="#c7ae99"/><stop offset=".8" stop-color="#c1a58d"/><stop offset="1" stop-color="#bfa38a"/></radialGradient></defs><path class="cls-2" d="M149.59,183.21c-16.49-1.87-32.93-4.22-49.31-6.89-16.39-2.67-32.72-5.66-49.02-8.8-9.25-1.78-18.49-3.61-27.73-5.46-1.59-.32-3.24.45-3.69,2.1-.41,1.48.5,3.37,2.1,3.69,16.46,3.29,32.93,6.53,49.44,9.53,16.49,3,33.03,5.78,49.63,8.15,9.51,1.36,19.04,2.6,28.59,3.68,1.61.18,3-1.51,3-3,0-1.77-1.38-2.82-3-3h0Z"/><path class="cls-1" d="M22.38,164.78c13.56-61.7,59.67-114.3,117.41-139.94s125.62-25.15,184.76-2.95c16.11,6.05,31.7,13.66,45.75,23.6,38.62,27.32,64.26,74,61.41,121.21s-36.72,92.35-82.66,103.64c18,4.63,36.05,10.83,50.6,22.39,10.8,8.59,19.26,19.84,25.91,31.93,18.32,33.29,23.09,73.78,13.02,110.42-10.07,36.64-34.87,69-67.63,88.25-12.22,7.18-25.43,12.58-38.91,16.97-76.84,25.08-163.95,16.79-234.69-22.33-15.87-8.77-30.99-19.07-43.99-31.71-27.8-27.03-44.97-64.72-47.1-103.44,41.55-7.46,83.43-13.04,125.48-16.74,2.46-.22,5-.42,7.34.38,5.65,1.92,7.84,8.54,9.8,14.17,8.41,24.25,27.03,45.47,51.25,53.98,24.22,8.5,53.65,2.67,70.67-16.54,17.02-19.21,18.47-51.35,1.12-70.27-13.76-15-35.52-19.7-55.88-20.12s-40.86,2.62-60.99-.4c-2.39-32.91-1.19-66.08,3.55-98.73,20.23.27,40.13-4.76,59.6-10.27,19.91-5.64,41.7-13.45,51.12-31.88,10.1-19.76.31-46.12-18.76-57.47-19.07-11.35-44.46-8.77-63.14,3.22-18.68,11.99-31.09,32.08-37.48,53.33"/><path class="cls-2" d="M25.27,165.58c9.45-42.58,34.34-80.54,67.78-108.25C129.96,26.75,176.72,10.45,224.43,8.6c25.33-.98,50.76,1.93,75.25,8.47,24.9,6.66,49.45,16.77,70.41,31.95,36.14,26.17,60.54,70.17,58.75,115.29-1.64,41.31-27.69,81.71-65.93,98.25-4.73,2.05-9.65,3.65-14.65,4.9-2.87.72-2.84,5.05,0,5.79,12.46,3.22,24.87,7.09,36.25,13.19,11.41,6.12,21.16,14.56,28.95,24.91,15.19,20.2,24.15,45.28,26.59,70.35s-1.29,49.56-11.29,72.11c-9.28,20.92-23.4,39.56-41.03,54.15-19.96,16.51-44.28,26.41-69.05,33.24-24.21,6.68-49.26,10.11-74.37,10.37-50.21.52-100.61-11.56-144.67-35.75-22.72-12.47-43.87-28.18-59.51-49.08-14.59-19.49-24.55-42.32-28.83-66.3-1.04-5.82-1.7-11.7-2.04-17.6l-2.2,2.89c40.28-7.21,80.87-12.69,121.63-16.36,3.93-.35,8.7-1.46,11.9,1.46,2.51,2.29,3.72,5.85,4.82,8.96,2.56,7.26,5.59,14.26,9.63,20.83,8.03,13.06,19.23,24.38,32.73,31.76,26.4,14.41,62.19,11.74,83.62-10.51,20.19-20.98,21.96-58.15.16-78.69-26.95-25.4-67.06-16.8-100.32-17.57-5.14-.12-10.29-.46-15.38-1.2l2.2,2.89c-2.33-32.65-1.23-65.53,3.45-97.93l-2.89,2.2c13.54.13,26.98-1.98,40.14-5.05,11.7-2.73,23.46-5.83,34.78-9.89,18.5-6.64,38.02-18.27,42.03-39.17,3.64-19-5.72-39.37-21.7-49.97-18.62-12.34-43.8-10.86-63.02-.76-22.26,11.7-36.63,34.49-43.78,57.99-1.13,3.7,4.66,5.28,5.79,1.6,5.91-19.41,16.85-38.17,33.75-49.96,16.52-11.53,39.46-15.83,58.18-7.07,16.03,7.5,26.7,24.84,25.5,42.62-1.3,19.35-18.17,31.12-34.75,37.59-11.15,4.36-22.88,7.44-34.49,10.31-13.91,3.44-28.05,5.9-42.42,5.77-1.18-.01-2.71.93-2.89,2.2-4.75,32.96-6.03,66.31-3.66,99.53.08,1.18.86,2.7,2.2,2.89,19.54,2.83,39.12.37,58.74.47,15.46.08,31.66,2.13,45.24,10.04,12.54,7.3,20.76,19.48,22.62,33.89s-1.9,28.49-10.54,39.43c-18.51,23.43-53.87,27.01-79.18,13.36-13.13-7.08-23.89-18.02-31.52-30.78-3.83-6.4-6.42-13.12-9.02-20.07s-6.38-13.02-14.21-13.58c-4.69-.33-9.63.59-14.3,1.03-4.91.47-9.83.96-14.73,1.48-9.82,1.04-19.62,2.17-29.42,3.42-19.35,2.45-38.64,5.29-57.88,8.53-4.87.82-9.73,1.67-14.59,2.54-1.22.22-2.27,1.67-2.2,2.89,1.46,25.25,8.96,49.98,21.69,71.83,13.26,22.75,32.01,41.21,53.91,55.66,43.88,28.95,96.48,44.62,148.83,46.95,25.9,1.15,51.97-1.03,77.3-6.54,26.1-5.68,52.6-14.48,74.9-29.49,40.84-27.51,66.45-74.37,66.87-123.68.22-26.12-6.28-52.36-19.03-75.19-6.39-11.45-14.45-22.24-24.58-30.66s-22.13-14.32-34.57-18.69c-6.15-2.16-12.42-3.95-18.72-5.58v5.79c42.42-10.6,74.56-48.75,82.86-91,9-45.79-10.48-93.42-43.58-125.07-18.89-18.07-42.31-30.42-66.75-39.25-24.75-8.95-50.91-14.09-77.2-15.25C195.21.46,144.47,13.24,103.28,42.05c-36.89,25.81-65.97,63.18-79.6,106.28-1.63,5.15-3.02,10.38-4.19,15.65-.84,3.76,4.95,5.37,5.79,1.6h0Z"/></svg>